<svg width="45" height="51" viewBox="0 0 45 51" fill="none" xmlns="http://www.w3.org/2000/svg">
<g clip-path="url(#clip0)">
<path d="M44.1513 23.5125L24.509 4.02887C23.9652 3.49012 23.228 3.1875 22.4594 3.1875C21.6908 3.1875 20.9536 3.49012 20.4098 4.02887L16.3256 8.076L21.5006 13.2079C24.2187 12.2974 26.7922 14.8783 25.859 17.5588L30.8472 22.5054C34.2855 21.33 36.9925 25.5933 34.41 28.1523C31.7492 30.7909 27.3577 27.8664 28.785 24.4329L24.1293 19.8219V31.9593C26.6706 33.2084 26.3653 36.128 25.0414 37.4379C24.3946 38.0789 23.5175 38.439 22.603 38.439C21.6886 38.439 20.8115 38.0789 20.1647 37.4379C18.3999 35.6847 19.0528 32.7652 21.2947 31.8597V19.6078C19.2054 18.7601 18.8237 16.5458 19.4224 15.1254L14.3207 10.0602L0.848852 23.4218C0.305335 23.9609 0 24.692 0 25.4543C0 26.2167 0.305335 26.9478 0.848852 27.4869L20.4972 46.9705C21.0408 47.5091 21.7778 47.8117 22.5463 47.8117C23.3148 47.8117 24.0518 47.5091 24.5954 46.9705L44.1513 27.5775C44.6948 27.0384 45.0002 26.3073 45.0002 25.545C45.0002 24.7827 44.6948 24.0516 44.1513 23.5125V23.5125Z" fill="black"/>
</g>
<defs>
<clipPath id="clip0">
<rect width="45" height="51" fill="white"/>
</clipPath>
</defs>
</svg>
