<svg width="52" height="52" viewBox="0 0 52 52" fill="none" xmlns="http://www.w3.org/2000/svg">
<path d="M42.64 23.4H9.35999C7.92479 23.4 7.79999 24.5622 7.79999 26C7.79999 27.4378 7.92479 28.6 9.35999 28.6H42.64C44.0752 28.6 44.2 27.4378 44.2 26C44.2 24.5622 44.0752 23.4 42.64 23.4V23.4ZM42.64 33.8H9.35999C7.92479 33.8 7.79999 34.9622 7.79999 36.4C7.79999 37.8378 7.92479 39 9.35999 39H42.64C44.0752 39 44.2 37.8378 44.2 36.4C44.2 34.9622 44.0752 33.8 42.64 33.8V33.8ZM9.35999 18.2H42.64C44.0752 18.2 44.2 17.0378 44.2 15.6C44.2 14.1622 44.0752 13 42.64 13H9.35999C7.92479 13 7.79999 14.1622 7.79999 15.6C7.79999 17.0378 7.92479 18.2 9.35999 18.2Z" fill="black"/>
</svg>
